<?xml version="1.0" standalone="no"?>
<!DOCTYPE svg PUBLIC "-//W3C//DTD SVG 20010904//EN"
 "http://www.w3.org/TR/2001/REC-SVG-20010904/DTD/svg10.dtd">
<svg version="1.0" xmlns="http://www.w3.org/2000/svg"
 width="80.000000pt" height="92.000000pt" viewBox="0 0 80.000000 92.000000"
 preserveAspectRatio="xMidYMid meet">

<g transform="translate(0.000000,92.000000) scale(0.100000,-0.100000)"
fill="#000000" stroke="none">
<path d="M110 830 l0 -40 56 0 c55 0 56 1 50 25 -6 24 -4 25 34 25 31 0 43 -5
56 -25 21 -32 51 -33 56 -2 2 18 10 23 42 25 37 3 38 2 34 -22 -5 -24 -2 -26
29 -26 31 0 33 2 27 25 -5 21 -3 25 16 25 13 0 29 -8 36 -17 13 -17 13 -17 14
0 0 12 8 17 26 17 23 0 25 -3 20 -25 -6 -24 -5 -25 44 -25 l50 0 0 40 0 40
-295 0 -295 0 0 -40z"/>
<path d="M255 810 c-9 -15 -1 -23 21 -18 15 3 16 4 1 16 -11 9 -17 10 -22 2z"/>
<path d="M395 810 c3 -5 11 -10 16 -10 6 0 7 5 4 10 -3 6 -11 10 -16 10 -6 0
-7 -4 -4 -10z"/>
<path d="M110 735 l0 -35 295 0 295 0 0 35 0 35 -49 0 c-47 0 -48 -1 -43 -26
4 -22 2 -25 -19 -22 -19 2 -23 8 -21 28 2 20 0 22 -8 10 -9 -13 -11 -13 -20 0
-8 12 -10 10 -8 -10 2 -20 -2 -26 -21 -28 -21 -3 -23 0 -19 22 4 22 2 26 -18
26 -14 0 -25 -8 -29 -20 -3 -11 -9 -20 -13 -21 -58 -9 -72 -6 -72 17 0 31 -32
32 -52 3 -10 -15 -25 -22 -53 -23 -36 -1 -40 1 -38 22 3 20 -1 22 -52 22 l-55
0 0 -35z"/>
<path d="M258 763 c7 -3 16 -2 19 1 4 3 -2 6 -13 5 -11 0 -14 -3 -6 -6z"/>
<path d="M395 760 c3 -5 8 -10 11 -10 2 0 4 5 4 10 0 6 -5 10 -11 10 -5 0 -7
-4 -4 -10z"/>
<path d="M110 524 c0 -86 4 -153 9 -150 5 3 70 73 145 156 l138 150 -146 0
-146 0 0 -156z"/>
<path d="M551 523 c78 -87 145 -159 148 -161 3 -1 5 70 3 158 l-3 160 -145 0
-145 0 142 -157z"/>
<path d="M332 470 c-80 -49 -80 -181 0 -230 43 -26 113 -26 156 0 80 49 80
181 0 230 -43 26 -113 26 -156 0z m156 -45 c66 -71 20 -178 -78 -178 -116 0
-150 153 -46 207 44 22 85 12 124 -29z"/>
<path d="M376 384 c-9 -8 -16 -22 -16 -29 0 -20 28 -45 50 -45 22 0 50 25 50
45 0 20 -28 45 -50 45 -10 0 -26 -7 -34 -16z"/>
<path d="M113 294 c7 -95 61 -182 141 -229 44 -25 133 -51 143 -42 5 5 -133
165 -256 297 l-32 35 4 -61z"/>
<path d="M585 218 c-60 -68 -126 -140 -145 -162 l-35 -39 44 8 c67 11 109 32
161 81 59 55 92 127 88 190 l-3 45 -110 -123z"/>
</g>
</svg>
